<svg width="55" height="31" viewBox="0 0 55 31" fill="none" xmlns="http://www.w3.org/2000/svg">
<path d="M11.3363 9.50334C11.8654 9.29967 12.4299 9.19104 13.0155 9.19104C15.5792 9.19104 17.7194 11.293 18.2087 14.0874L21.8424 13.232C21.0098 8.48497 17.3737 4.91115 13.0155 4.91115C12.016 4.91115 11.0587 5.09853 10.1603 5.44613L11.3363 9.50334Z" fill="#FFCB05"/>
<path d="M7.04861 23.098L9.5064 19.8908C8.41039 18.7692 7.71891 17.1317 7.71891 15.3067C7.71891 13.4845 8.41039 11.847 9.5064 10.7281L7.04861 7.51819C5.18586 9.42459 4.00989 12.2081 4.00989 15.3067C4.00989 18.408 5.18586 21.1916 7.04861 23.098" fill="#00A4E0"/>
<path d="M18.2087 16.5342C17.7171 19.3259 15.5792 21.4251 13.0179 21.4251C12.4299 21.4251 11.8631 21.3165 11.3363 21.1101L10.1603 25.1728C11.0587 25.5176 12.0183 25.705 13.0179 25.705C17.3714 25.705 21.0051 22.1366 21.8424 17.3951L18.2087 16.5342Z" fill="#EF4123"/>
<path d="M25.0199 20.0239C24.9 19.8012 24.74 19.4454 24.6413 19.182C24.065 17.6395 24.0392 16.0427 24.5237 14.511C25.0575 12.83 26.0783 11.5455 27.3977 10.8883C29.0559 10.0655 30.888 10.2257 32.478 11.3147C33.4869 11.9828 34.2019 13.0147 34.7452 14.4757C34.8134 14.6631 34.8746 14.8614 34.9357 15.0325L25.0199 20.0239ZM28.3315 13.3677C27.1531 13.9516 26.5463 15.228 26.6733 16.7216L31.6595 14.2422C30.801 13.0799 29.6862 12.6943 28.3315 13.3677V13.3677ZM32.2804 18.7611C32.278 18.7611 32.278 18.7638 32.278 18.7638L32.1746 18.6823C31.8759 19.239 31.4125 19.6925 30.8269 19.9858C29.7121 20.5453 28.6796 20.4013 27.9363 19.6491L27.8681 19.7686C27.8681 19.7686 27.8681 19.7659 27.8658 19.7659L26.6004 21.952C26.9156 22.2045 27.2519 22.4164 27.6047 22.5874C29.0018 23.2582 30.4318 23.2256 31.8406 22.5196C32.859 22.009 33.6586 21.2323 34.2043 20.2465L32.2804 18.7611ZM38.4002 7.67299V19.8229L40.0371 20.5887L39.1081 23.0926L37.3018 22.2235C36.8973 22.0199 36.6197 21.7103 36.4128 21.36C36.2129 21.0042 36.0647 20.5127 36.0647 19.8555V7.67299H38.4002ZM42.6384 16.7297C42.6384 15.6951 43.0359 14.7663 43.6615 14.1363L41.9822 11.9746C40.8438 13.1369 40.1265 14.8342 40.1265 16.7243C40.1241 18.6171 40.8415 20.3171 41.9775 21.4795L43.6544 19.3178C43.0312 18.685 42.6384 17.7617 42.6384 16.7297V16.7297ZM45.6207 20.1759C45.2914 20.1759 44.9715 20.1108 44.6752 19.9967L43.8732 22.7477C44.4212 22.9595 45.0068 23.0763 45.6183 23.0763C48.276 23.079 50.4939 20.901 51.009 18.0088L48.5441 17.4277C48.2642 19 47.0624 20.1786 45.6207 20.1759V20.1759ZM45.6277 10.3832C45.0186 10.3832 44.4329 10.4973 43.8849 10.7064L44.6799 13.4601C44.9786 13.346 45.2961 13.2836 45.6254 13.2836C47.0695 13.2863 48.2737 14.4703 48.5465 16.0454L51.0113 15.4697C50.5057 12.5721 48.2878 10.3859 45.6277 10.3832V10.3832Z" fill="white"/>
</svg>
